STARTFONT 2.1
FONT -FontForge-Everyday_Vast_Black_Original-Book-R-Normal--11-110-75-75-P-80-ISO10646-1
SIZE 11 75 75
FONTBOUNDINGBOX 14 13 0 1
COMMENT "Generated by fontforge, http://fontforge.sourceforge.net"
STARTPROPERTIES 38
FOUNDRY "FontForge"
FAMILY_NAME "Everyday_Vast_Black_Original"
WEIGHT_NAME "Book"
SLANT "R"
SETWIDTH_NAME "Normal"
ADD_STYLE_NAME ""
PIXEL_SIZE 11
POINT_SIZE 110
RESOLUTION_X 75
RESOLUTION_Y 75
SPACING "P"
AVERAGE_WIDTH 80
CHARSET_REGISTRY "ISO10646"
CHARSET_ENCODING "1"
FONTNAME_REGISTRY ""
CHARSET_COLLECTIONS "ISO10646-1"
FONT_NAME "Everyday_Vast_Black_Original"
FACE_NAME "Everyday_Vast_Black_Original Regular"
FONT_VERSION "1.0"
FONT_ASCENT 8
FONT_DESCENT 3
UNDERLINE_POSITION 1
UNDERLINE_THICKNESS 1
X_HEIGHT 11
CAP_HEIGHT 13
RAW_ASCENT 799
RAW_DESCENT 200
NORM_SPACE 8
RELATIVE_WEIGHT 40
RELATIVE_SETWIDTH 50
SUPERSCRIPT_X 0
SUPERSCRIPT_Y 5
SUPERSCRIPT_SIZE 5
SUBSCRIPT_X 0
SUBSCRIPT_Y -1
SUBSCRIPT_SIZE 5
AVG_LOWERCASE_WIDTH 81
AVG_UPPERCASE_WIDTH 96
ENDPROPERTIES
CHARS 98
STARTCHAR uni000D
ENCODING 13
SWIDTH 90 0
DWIDTH 1 0
BBX 1 1 0 0
BITMAP
00
ENDCHAR
STARTCHAR space
ENCODING 32
SWIDTH 727 0
DWIDTH 8 0
BBX 1 1 0 0
BITMAP
00
ENDCHAR
STARTCHAR exclam
ENCODING 33
SWIDTH 272 0
DWIDTH 3 0
BBX 2 11 0 3
BITMAP
C0
C0
C0
C0
C0
C0
C0
C0
00
C0
C0
ENDCHAR
STARTCHAR quotedbl
ENCODING 34
SWIDTH 363 0
DWIDTH 4 0
BBX 3 3 0 11
BITMAP
A0
A0
A0
ENDCHAR
STARTCHAR numbersign
ENCODING 35
SWIDTH 1000 0
DWIDTH 11 0
BBX 10 9 0 3
BITMAP
3300
3300
FFC0
3300
3300
3300
FFC0
3300
3300
ENDCHAR
STARTCHAR dollar
ENCODING 36
SWIDTH 818 0
DWIDTH 9 0
BBX 8 11 0 3
BITMAP
18
7E
DB
D8
D8
7E
1B
1B
DB
7E
18
ENDCHAR
STARTCHAR percent
ENCODING 37
SWIDTH 1090 0
DWIDTH 12 0
BBX 11 11 0 3
BITMAP
6060
F0E0
F1C0
6380
0700
0E00
1C00
38C0
71E0
E1E0
C0C0
ENDCHAR
STARTCHAR ampersand
ENCODING 38
SWIDTH 1000 0
DWIDTH 11 0
BBX 10 11 0 3
BITMAP
3C00
6600
6600
6600
3C00
6C00
C6C0
C380
C180
6340
3E00
ENDCHAR
STARTCHAR quotesingle
ENCODING 39
SWIDTH 181 0
DWIDTH 2 0
BBX 1 3 0 11
BITMAP
80
80
80
ENDCHAR
STARTCHAR parenleft
ENCODING 40
SWIDTH 454 0
DWIDTH 5 0
BBX 4 13 0 1
BITMAP
30
60
60
C0
C0
C0
C0
C0
C0
C0
60
60
30
ENDCHAR
STARTCHAR parenright
ENCODING 41
SWIDTH 454 0
DWIDTH 5 0
BBX 4 13 0 1
BITMAP
C0
60
60
30
30
30
30
30
30
30
60
60
C0
ENDCHAR
STARTCHAR asterisk
ENCODING 42
SWIDTH 818 0
DWIDTH 9 0
BBX 8 7 0 4
BITMAP
18
DB
7E
3C
7E
DB
18
ENDCHAR
STARTCHAR plus
ENCODING 43
SWIDTH 818 0
DWIDTH 9 0
BBX 8 7 0 4
BITMAP
18
18
18
FF
18
18
18
ENDCHAR
STARTCHAR comma
ENCODING 44
SWIDTH 363 0
DWIDTH 4 0
BBX 3 3 0 2
BITMAP
60
60
C0
ENDCHAR
STARTCHAR hyphen
ENCODING 45
SWIDTH 727 0
DWIDTH 8 0
BBX 7 1 0 6
BITMAP
FE
ENDCHAR
STARTCHAR period
ENCODING 46
SWIDTH 272 0
DWIDTH 3 0
BBX 2 2 0 3
BITMAP
C0
C0
ENDCHAR
STARTCHAR slash
ENCODING 47
SWIDTH 636 0
DWIDTH 7 0
BBX 6 10 0 3
BITMAP
0C
0C
18
18
30
30
60
60
C0
C0
ENDCHAR
STARTCHAR zero
ENCODING 48
SWIDTH 818 0
DWIDTH 9 0
BBX 8 11 0 3
BITMAP
3C
66
C3
C3
DB
DB
DB
C3
C3
66
3C
ENDCHAR
STARTCHAR one
ENCODING 49
SWIDTH 636 0
DWIDTH 7 0
BBX 6 11 0 3
BITMAP
30
F0
30
30
30
30
30
30
30
30
FC
ENDCHAR
STARTCHAR two
ENCODING 50
SWIDTH 818 0
DWIDTH 9 0
BBX 8 11 0 3
BITMAP
7E
C3
03
03
07
7E
E0
C0
C0
C1
FF
ENDCHAR
STARTCHAR three
ENCODING 51
SWIDTH 818 0
DWIDTH 9 0
BBX 8 11 0 3
BITMAP
7E
C3
03
03
03
3E
03
03
03
C3
7E
ENDCHAR
STARTCHAR four
ENCODING 52
SWIDTH 818 0
DWIDTH 9 0
BBX 8 11 0 3
BITMAP
C3
C3
C3
C3
C3
FF
03
03
03
03
03
ENDCHAR
STARTCHAR five
ENCODING 53
SWIDTH 818 0
DWIDTH 9 0
BBX 8 11 0 3
BITMAP
FF
C3
C0
C0
C0
7E
03
03
03
C3
7E
ENDCHAR
STARTCHAR six
ENCODING 54
SWIDTH 818 0
DWIDTH 9 0
BBX 8 11 0 3
BITMAP
7E
C3
C0
C0
FE
C3
C3
C3
C3
C3
7E
ENDCHAR
STARTCHAR seven
ENCODING 55
SWIDTH 818 0
DWIDTH 9 0
BBX 8 11 0 3
BITMAP
FF
C3
03
06
06
0C
0C
18
18
30
30
ENDCHAR
STARTCHAR eight
ENCODING 56
SWIDTH 818 0
DWIDTH 9 0
BBX 8 11 0 3
BITMAP
7E
C3
C3
C3
C3
7E
C3
C3
C3
C3
7E
ENDCHAR
STARTCHAR nine
ENCODING 57
SWIDTH 818 0
DWIDTH 9 0
BBX 8 11 0 3
BITMAP
7E
C3
C3
C3
C3
C3
7F
03
03
C3
7E
ENDCHAR
STARTCHAR colon
ENCODING 58
SWIDTH 272 0
DWIDTH 3 0
BBX 2 7 0 4
BITMAP
C0
C0
00
00
00
C0
C0
ENDCHAR
STARTCHAR semicolon
ENCODING 59
SWIDTH 363 0
DWIDTH 4 0
BBX 3 9 0 2
BITMAP
60
60
00
00
00
00
60
60
C0
ENDCHAR
STARTCHAR less
ENCODING 60
SWIDTH 727 0
DWIDTH 8 0
BBX 7 7 0 4
BITMAP
06
1E
78
E0
78
1E
06
ENDCHAR
STARTCHAR equal
ENCODING 61
SWIDTH 636 0
DWIDTH 7 0
BBX 6 5 0 5
BITMAP
FC
00
00
00
FC
ENDCHAR
STARTCHAR greater
ENCODING 62
SWIDTH 727 0
DWIDTH 8 0
BBX 7 7 0 4
BITMAP
C0
F0
3C
0E
3C
F0
C0
ENDCHAR
STARTCHAR question
ENCODING 63
SWIDTH 727 0
DWIDTH 8 0
BBX 7 11 0 3
BITMAP
7C
CE
06
06
06
0C
18
30
00
30
30
ENDCHAR
STARTCHAR at
ENCODING 64
SWIDTH 1090 0
DWIDTH 12 0
BBX 11 11 0 3
BITMAP
3F80
60C0
C060
CF60
DB60
DB60
DB60
CFC0
C000
6000
3E00
ENDCHAR
STARTCHAR A
ENCODING 65
SWIDTH 818 0
DWIDTH 9 0
BBX 8 11 0 3
BITMAP
18
3C
66
66
C3
C3
FF
C3
C3
C3
C3
ENDCHAR
STARTCHAR B
ENCODING 66
SWIDTH 818 0
DWIDTH 9 0
BBX 8 11 0 3
BITMAP
FC
C6
C3
C3
C6
FC
C6
C3
C3
C6
FC
ENDCHAR
STARTCHAR C
ENCODING 67
SWIDTH 909 0
DWIDTH 10 0
BBX 9 11 0 3
BITMAP
3F00
6180
C000
C000
C000
C000
C000
C000
C000
6180
3F00
ENDCHAR
STARTCHAR D
ENCODING 68
SWIDTH 818 0
DWIDTH 9 0
BBX 8 11 0 3
BITMAP
FC
C6
C3
C3
C3
C3
C3
C3
C3
C6
FC
ENDCHAR
STARTCHAR E
ENCODING 69
SWIDTH 818 0
DWIDTH 9 0
BBX 8 11 0 3
BITMAP
FF
C0
C0
C0
C0
FC
C0
C0
C0
C0
FF
ENDCHAR
STARTCHAR F
ENCODING 70
SWIDTH 818 0
DWIDTH 9 0
BBX 8 11 0 3
BITMAP
FF
C0
C0
C0
C0
FC
C0
C0
C0
C0
C0
ENDCHAR
STARTCHAR G
ENCODING 71
SWIDTH 909 0
DWIDTH 10 0
BBX 9 11 0 3
BITMAP
3F00
6180
C000
C000
C000
C780
C180
C180
C180
6180
3F00
ENDCHAR
STARTCHAR H
ENCODING 72
SWIDTH 818 0
DWIDTH 9 0
BBX 8 11 0 3
BITMAP
C3
C3
C3
C3
C3
FF
C3
C3
C3
C3
C3
ENDCHAR
STARTCHAR I
ENCODING 73
SWIDTH 636 0
DWIDTH 7 0
BBX 6 11 0 3
BITMAP
FC
30
30
30
30
30
30
30
30
30
FC
ENDCHAR
STARTCHAR J
ENCODING 74
SWIDTH 818 0
DWIDTH 9 0
BBX 8 11 0 3
BITMAP
3F
03
03
03
03
03
03
03
03
C6
7C
ENDCHAR
STARTCHAR K
ENCODING 75
SWIDTH 818 0
DWIDTH 9 0
BBX 8 11 0 3
BITMAP
C3
C3
C6
C6
CC
F8
CC
C6
C6
C3
C3
ENDCHAR
STARTCHAR L
ENCODING 76
SWIDTH 818 0
DWIDTH 9 0
BBX 8 11 0 3
BITMAP
C0
C0
C0
C0
C0
C0
C0
C0
C0
C0
7F
ENDCHAR
STARTCHAR M
ENCODING 77
SWIDTH 1363 0
DWIDTH 15 0
BBX 14 11 0 3
BITMAP
DCF0
E318
C30C
C30C
C30C
C30C
C30C
C30C
C30C
C00C
C00C
ENDCHAR
STARTCHAR N
ENCODING 78
SWIDTH 818 0
DWIDTH 9 0
BBX 8 11 0 3
BITMAP
DC
E6
C3
C3
C3
C3
C3
C3
C3
C3
C3
ENDCHAR
STARTCHAR O
ENCODING 79
SWIDTH 909 0
DWIDTH 10 0
BBX 9 11 0 3
BITMAP
3E00
6300
C180
C180
C180
C180
C180
C180
C180
6300
3E00
ENDCHAR
STARTCHAR P
ENCODING 80
SWIDTH 818 0
DWIDTH 9 0
BBX 8 11 0 3
BITMAP
FC
C6
C3
C3
C3
C6
FC
C0
C0
C0
C0
ENDCHAR
STARTCHAR Q
ENCODING 81
SWIDTH 909 0
DWIDTH 10 0
BBX 9 11 0 3
BITMAP
3E00
6300
C180
C180
C180
C180
C180
C180
C180
6300
3D80
ENDCHAR
STARTCHAR R
ENCODING 82
SWIDTH 818 0
DWIDTH 9 0
BBX 8 11 0 3
BITMAP
FC
C6
C3
C3
C3
C6
FC
C6
C6
C3
C3
ENDCHAR
STARTCHAR S
ENCODING 83
SWIDTH 818 0
DWIDTH 9 0
BBX 8 11 0 3
BITMAP
7E
C3
C0
C0
C0
7E
03
03
03
C3
7E
ENDCHAR
STARTCHAR T
ENCODING 84
SWIDTH 818 0
DWIDTH 9 0
BBX 8 11 0 3
BITMAP
FF
18
18
18
18
18
18
18
18
18
18
ENDCHAR
STARTCHAR U
ENCODING 85
SWIDTH 818 0
DWIDTH 9 0
BBX 8 11 0 3
BITMAP
C3
C3
C3
C3
C3
C3
C3
C3
C3
67
3B
ENDCHAR
STARTCHAR V
ENCODING 86
SWIDTH 818 0
DWIDTH 9 0
BBX 8 11 0 3
BITMAP
C3
C3
C3
C3
66
66
66
3C
3C
18
18
ENDCHAR
STARTCHAR W
ENCODING 87
SWIDTH 1363 0
DWIDTH 15 0
BBX 14 11 0 3
BITMAP
C00C
C00C
C30C
C30C
6318
6798
6798
3CF0
3CF0
1860
1860
ENDCHAR
STARTCHAR X
ENCODING 88
SWIDTH 818 0
DWIDTH 9 0
BBX 8 11 0 3
BITMAP
C3
C3
66
66
3C
18
3C
66
66
C3
C3
ENDCHAR
STARTCHAR Y
ENCODING 89
SWIDTH 1000 0
DWIDTH 11 0
BBX 10 11 0 3
BITMAP
C0C0
C0C0
6180
6180
3300
1E00
0C00
0C00
0C00
0C00
0C00
ENDCHAR
STARTCHAR Z
ENCODING 90
SWIDTH 818 0
DWIDTH 9 0
BBX 8 11 0 3
BITMAP
FF
C3
03
07
0E
1C
38
70
E0
C3
FF
ENDCHAR
STARTCHAR bracketleft
ENCODING 91
SWIDTH 454 0
DWIDTH 5 0
BBX 4 13 0 1
BITMAP
F0
C0
C0
C0
C0
C0
C0
C0
C0
C0
C0
C0
F0
ENDCHAR
STARTCHAR backslash
ENCODING 92
SWIDTH 636 0
DWIDTH 7 0
BBX 6 10 0 3
BITMAP
C0
C0
60
60
30
30
18
18
0C
0C
ENDCHAR
STARTCHAR bracketright
ENCODING 93
SWIDTH 454 0
DWIDTH 5 0
BBX 4 13 0 1
BITMAP
F0
30
30
30
30
30
30
30
30
30
30
30
F0
ENDCHAR
STARTCHAR asciicircum
ENCODING 94
SWIDTH 636 0
DWIDTH 7 0
BBX 6 3 0 11
BITMAP
30
78
DC
ENDCHAR
STARTCHAR underscore
ENCODING 95
SWIDTH 1181 0
DWIDTH 13 0
BBX 12 1 0 2
BITMAP
FFF0
ENDCHAR
STARTCHAR grave
ENCODING 96
SWIDTH 363 0
DWIDTH 4 0
BBX 3 3 0 11
BITMAP
C0
C0
60
ENDCHAR
STARTCHAR a
ENCODING 97
SWIDTH 727 0
DWIDTH 8 0
BBX 7 9 0 3
BITMAP
3C
06
3E
66
C6
C6
C6
66
3E
ENDCHAR
STARTCHAR b
ENCODING 98
SWIDTH 727 0
DWIDTH 8 0
BBX 7 11 0 3
BITMAP
C0
C0
F8
CC
C6
C6
C6
C6
C6
CC
F8
ENDCHAR
STARTCHAR c
ENCODING 99
SWIDTH 727 0
DWIDTH 8 0
BBX 7 9 0 3
BITMAP
3C
60
C0
C0
C0
C0
C0
66
3C
ENDCHAR
STARTCHAR d
ENCODING 100
SWIDTH 727 0
DWIDTH 8 0
BBX 7 11 0 3
BITMAP
06
06
3E
66
C6
C6
C6
C6
C6
66
3E
ENDCHAR
STARTCHAR e
ENCODING 101
SWIDTH 727 0
DWIDTH 8 0
BBX 7 9 0 3
BITMAP
3C
66
C6
C6
FE
C0
C0
66
3C
ENDCHAR
STARTCHAR f
ENCODING 102
SWIDTH 636 0
DWIDTH 7 0
BBX 6 11 0 3
BITMAP
78
CC
C0
C0
C0
F8
C0
C0
C0
C0
C0
ENDCHAR
STARTCHAR g
ENCODING 103
SWIDTH 727 0
DWIDTH 8 0
BBX 7 11 0 1
BITMAP
3C
66
C6
C6
C6
C6
C6
66
3E
06
7C
ENDCHAR
STARTCHAR h
ENCODING 104
SWIDTH 727 0
DWIDTH 8 0
BBX 7 11 0 3
BITMAP
C0
C0
F8
CC
C6
C6
C6
C6
C6
C6
C6
ENDCHAR
STARTCHAR i
ENCODING 105
SWIDTH 272 0
DWIDTH 3 0
BBX 2 11 0 3
BITMAP
C0
00
C0
C0
C0
C0
C0
C0
C0
C0
C0
ENDCHAR
STARTCHAR j
ENCODING 106
SWIDTH 636 0
DWIDTH 7 0
BBX 6 13 0 1
BITMAP
0C
00
0C
0C
0C
0C
0C
0C
0C
0C
0C
CC
78
ENDCHAR
STARTCHAR k
ENCODING 107
SWIDTH 727 0
DWIDTH 8 0
BBX 7 11 0 3
BITMAP
C0
C0
C6
C6
CC
F8
CC
C6
C6
C6
C6
ENDCHAR
STARTCHAR l
ENCODING 108
SWIDTH 454 0
DWIDTH 5 0
BBX 4 11 0 3
BITMAP
C0
C0
C0
C0
C0
C0
C0
C0
C0
C0
70
ENDCHAR
STARTCHAR m
ENCODING 109
SWIDTH 1181 0
DWIDTH 13 0
BBX 12 9 0 3
BITMAP
D9C0
E660
C630
C630
C630
C630
C630
C030
C030
ENDCHAR
STARTCHAR n
ENCODING 110
SWIDTH 818 0
DWIDTH 9 0
BBX 8 9 0 3
BITMAP
DC
E6
C3
C3
C3
C3
C3
C3
C3
ENDCHAR
STARTCHAR o
ENCODING 111
SWIDTH 818 0
DWIDTH 9 0
BBX 8 9 0 3
BITMAP
3C
66
C3
C3
C3
C3
C3
66
3C
ENDCHAR
STARTCHAR p
ENCODING 112
SWIDTH 727 0
DWIDTH 8 0
BBX 7 11 0 1
BITMAP
F8
CC
C6
C6
C6
C6
C6
CC
F8
C0
C0
ENDCHAR
STARTCHAR q
ENCODING 113
SWIDTH 727 0
DWIDTH 8 0
BBX 7 11 0 1
BITMAP
3E
66
C6
C6
C6
C6
C6
66
3E
06
06
ENDCHAR
STARTCHAR r
ENCODING 114
SWIDTH 727 0
DWIDTH 8 0
BBX 7 9 0 3
BITMAP
7C
C6
C0
C0
C0
C0
C0
C0
C0
ENDCHAR
STARTCHAR s
ENCODING 115
SWIDTH 727 0
DWIDTH 8 0
BBX 7 9 0 3
BITMAP
7C
C6
C0
C0
7C
06
06
C6
7C
ENDCHAR
STARTCHAR t
ENCODING 116
SWIDTH 636 0
DWIDTH 7 0
BBX 6 11 0 3
BITMAP
C0
C0
F8
C0
C0
C0
C0
C0
C0
CC
78
ENDCHAR
STARTCHAR u
ENCODING 117
SWIDTH 818 0
DWIDTH 9 0
BBX 8 9 0 3
BITMAP
C3
C3
C3
C3
C3
C3
C3
67
3B
ENDCHAR
STARTCHAR v
ENCODING 118
SWIDTH 818 0
DWIDTH 9 0
BBX 8 9 0 3
BITMAP
C3
C3
C3
66
66
3C
3C
18
18
ENDCHAR
STARTCHAR w
ENCODING 119
SWIDTH 1181 0
DWIDTH 13 0
BBX 12 9 0 3
BITMAP
C030
C030
C630
C630
C630
C630
C630
6960
30C0
ENDCHAR
STARTCHAR x
ENCODING 120
SWIDTH 727 0
DWIDTH 8 0
BBX 7 9 0 3
BITMAP
C6
C6
6C
6C
38
6C
6C
C6
C6
ENDCHAR
STARTCHAR y
ENCODING 121
SWIDTH 727 0
DWIDTH 8 0
BBX 7 11 0 1
BITMAP
C6
C6
C6
C6
C6
C6
C6
66
3E
06
7C
ENDCHAR
STARTCHAR z
ENCODING 122
SWIDTH 727 0
DWIDTH 8 0
BBX 7 9 0 3
BITMAP
FE
C6
0E
1C
38
70
E0
C6
FE
ENDCHAR
STARTCHAR braceleft
ENCODING 123
SWIDTH 545 0
DWIDTH 6 0
BBX 5 13 0 1
BITMAP
38
60
60
60
60
60
C0
60
60
60
60
60
38
ENDCHAR
STARTCHAR bar
ENCODING 124
SWIDTH 272 0
DWIDTH 3 0
BBX 2 13 0 1
BITMAP
C0
C0
C0
C0
C0
C0
C0
C0
C0
C0
C0
C0
C0
ENDCHAR
STARTCHAR braceright
ENCODING 125
SWIDTH 545 0
DWIDTH 6 0
BBX 5 13 0 1
BITMAP
E0
30
30
30
30
30
18
30
30
30
30
30
E0
ENDCHAR
STARTCHAR asciitilde
ENCODING 126
SWIDTH 727 0
DWIDTH 8 0
BBX 7 3 0 11
BITMAP
76
FE
DC
ENDCHAR
STARTCHAR uni220E
ENCODING 8718
SWIDTH 909 0
DWIDTH 10 0
BBX 9 11 0 3
BITMAP
FF80
FF80
FF80
FF80
FF80
FF80
FF80
FF80
FF80
FF80
FF80
ENDCHAR
STARTCHAR .notdef
ENCODING -1
SWIDTH 90 0
DWIDTH 1 0
BBX 1 1 0 0
BITMAP
00
ENDCHAR
ENDFONT
